<svg width="256" height="41" viewBox="0 0 256 41" fill="none" xmlns="http://www.w3.org/2000/svg">
<path d="M49.8408 22.0245C49.8408 13.8044 55.2459 9.03516 61.459 9.03516C62.8423 9.04474 64.2096 9.33378 65.4801 9.88515C66.7505 10.4365 67.8983 11.239 68.8555 12.2452L65.931 15.8451C64.8125 14.6406 63.2659 13.9315 61.6297 13.8732C58.2159 13.8732 55.5873 16.8654 55.5873 21.8983C55.5873 26.9313 57.9428 29.9235 61.5386 29.9235C62.4567 29.9084 63.361 29.696 64.1911 29.3006C65.0211 28.9052 65.7579 28.3359 66.3521 27.6306L69.2879 31.1502C68.3151 32.3191 67.0946 33.2534 65.7161 33.8844C64.3376 34.5153 62.8362 34.8268 61.3224 34.7959C55.0525 34.7386 49.8408 30.3706 49.8408 22.0245Z" fill="white"/>
<path d="M70.7324 24.845C70.7324 18.7345 75.0679 14.9512 79.5627 14.9512C84.8995 14.9512 87.5281 18.8606 87.5281 24.0081C87.5304 24.839 87.4542 25.6682 87.3005 26.4845H76.0465C76.2001 27.6459 76.7892 28.704 77.6927 29.4417C78.5963 30.1793 79.7459 30.5405 80.9054 30.4512C82.3434 30.4235 83.7456 29.9949 84.9564 29.213L86.7885 32.5836C84.8283 33.9345 82.5176 34.6759 80.143 34.716C74.8062 34.7389 70.7324 31.0932 70.7324 24.845ZM82.8058 22.7814C82.8058 20.7064 81.9068 19.216 79.6879 19.216C77.9355 19.216 76.422 20.3624 76.0465 22.7814H82.8058Z" fill="white"/>
<path d="M89.8042 15.4095H94.3559L94.7314 17.84H94.8679C95.6339 16.9875 96.5606 16.297 97.5941 15.8089C98.6276 15.3208 99.7471 15.0447 100.888 14.9968C104.961 14.9968 106.702 17.8973 106.702 22.6093V34.2801H101.149V23.2742C101.149 20.5686 100.432 19.7087 98.8734 19.7087C97.4738 19.7087 96.5976 20.3737 95.4597 21.5431V34.2801H89.8042V15.4095Z" fill="white"/>
<path d="M111.403 27.413V19.8006H108.842V15.6275L111.71 15.4097L112.358 10.3997H116.91V15.4097H121.462V19.8006H116.91V27.3557C116.91 29.4881 117.877 30.3479 119.334 30.3479C119.944 30.3251 120.547 30.2052 121.12 29.9925L121.997 34.051C120.654 34.505 119.248 34.7373 117.832 34.7388C113.235 34.7388 111.403 31.7925 111.403 27.413Z" fill="white"/>
<path d="M124.353 15.41H128.904L129.302 18.7118H129.439C130.805 16.1896 132.853 14.9514 134.753 14.9514C135.53 14.907 136.307 15.0362 137.029 15.3297L136.05 20.1334C135.391 19.9459 134.71 19.8457 134.025 19.8353C132.614 19.8353 130.896 20.7525 129.894 23.2747V34.2118H124.353V15.41Z" fill="white"/>
<path d="M137.461 29.0411C137.461 25.0629 140.59 22.919 147.998 22.1624C148.018 21.7764 147.954 21.3907 147.809 21.0329C147.664 20.6751 147.442 20.3542 147.159 20.0932C146.876 19.8322 146.539 19.6378 146.172 19.5237C145.806 19.4097 145.419 19.379 145.039 19.4338C143.293 19.5612 141.608 20.1375 140.146 21.1076L138.166 17.439C140.541 15.8812 143.299 15.0198 146.132 14.9512C150.922 14.9512 153.574 17.7027 153.574 23.4922V34.2804H149.022L148.624 32.3429H148.487C147.03 33.7974 145.086 34.6518 143.036 34.7389C142.29 34.7652 141.547 34.6352 140.853 34.3571C140.16 34.079 139.531 33.6589 139.007 33.1233C138.483 32.5877 138.075 31.9483 137.809 31.2457C137.542 30.543 137.424 29.7923 137.461 29.0411ZM147.998 28.8003V25.4985C144.061 26.0374 142.775 27.1724 142.775 28.594C142.775 29.8092 143.594 30.4053 144.914 30.4053C145.512 30.3747 146.096 30.2157 146.628 29.9389C147.16 29.6621 147.627 29.2739 147.998 28.8003V28.8003Z" fill="white"/>
<path d="M157.455 28.4104V7.63672H163.008V28.6397C163.008 29.7862 163.554 30.2218 164.009 30.2218C164.239 30.23 164.47 30.203 164.692 30.1416L165.352 34.2688C164.463 34.61 163.515 34.7698 162.564 34.7388C158.763 34.7388 157.455 32.2281 157.455 28.4104Z" fill="white"/>
<path d="M170.074 8.39331H174.011L178.939 22.231C179.553 23.9965 180.145 25.8194 180.759 27.6193H180.919C181.533 25.8194 182.057 23.9965 182.694 22.231L187.564 8.39331H191.501V34.2802H188.463V20.0298C188.463 17.7369 188.713 14.6644 188.873 12.3715H188.713L186.676 18.2757L181.84 31.6663H179.678L174.819 18.2757L172.782 12.3715H172.623C172.782 14.6644 173.033 17.7713 173.033 20.0298V34.2802H170.074V8.39331Z" fill="white"/>
<path d="M196.406 27.2525V15.1116H199.627V26.8398C199.627 30.4052 200.708 31.93 203.222 31.93C205.168 31.93 206.511 30.967 208.309 28.7085V15.1116H211.529V34.2803H208.878L208.605 31.2765H208.491C206.727 33.3631 204.827 34.7159 202.221 34.7159C198.181 34.7503 196.406 32.1478 196.406 27.2525Z" fill="white"/>
<path d="M215.066 32.0906L216.648 29.9582C218.184 31.3847 220.182 32.1996 222.269 32.2511C224.761 32.2511 226.002 30.9098 226.002 29.2704C226.002 27.2985 223.726 26.4271 221.655 25.6361C218.992 24.6616 215.965 23.3432 215.965 20.0987C215.965 17.0377 218.401 14.6646 222.52 14.6646C224.674 14.6979 226.755 15.4521 228.437 16.8084L226.901 18.895C225.681 17.8547 224.151 17.2536 222.554 17.1867C220.164 17.1867 219.061 18.4708 219.061 19.9382C219.061 21.7611 221.12 22.449 223.282 23.2629C226.025 24.3062 229.086 25.4297 229.086 29.0755C229.086 32.1823 226.628 34.8077 222.144 34.8077C219.547 34.7374 217.051 33.7792 215.066 32.0906V32.0906Z" fill="white"/>
<path d="M232.204 9.06999C232.314 8.55768 232.594 8.0987 232.999 7.7695C233.404 7.44029 233.909 7.26074 234.429 7.26074C234.949 7.26074 235.453 7.44029 235.858 7.7695C236.263 8.0987 236.544 8.55768 236.653 9.06999C236.544 9.58231 236.263 10.0413 235.858 10.3705C235.453 10.6997 234.949 10.8792 234.429 10.8792C233.909 10.8792 233.404 10.6997 232.999 10.3705C232.594 10.0413 232.314 9.58231 232.204 9.06999V9.06999ZM232.796 15.1118H236.005V34.2805H232.796V15.1118Z" fill="white"/>
<path d="M240.284 24.7189C240.284 18.3217 244.574 14.6416 249.388 14.6416C251.468 14.6443 253.466 15.4673 254.952 16.9345L253.291 18.9867C252.301 17.9497 250.951 17.3412 249.524 17.2899C246.11 17.2899 243.55 20.2821 243.55 24.6731C243.55 29.064 245.94 31.9989 249.433 31.9989C251.109 31.9524 252.711 31.2921 253.939 30.1416L255.327 32.3084C253.648 33.8574 251.46 34.727 249.183 34.7504C244.085 34.7504 240.284 31.0703 240.284 24.7189Z" fill="white"/>
<path d="M6.68446e-05 20.5458C-0.0126124 25.4588 1.77887 30.203 5.0297 33.8651C8.28053 37.5273 12.761 39.8485 17.6086 40.3822C22.4563 40.9159 27.3285 39.6242 31.2876 36.7557C35.2467 33.8873 38.0128 29.6449 39.0535 24.845H33.8191C33.6392 24.8817 33.4735 24.9692 33.3411 25.0972C32.9598 25.4871 32.6168 25.9133 32.317 26.3698C32.2333 26.5172 32.1096 26.6375 31.9605 26.7167C31.8114 26.7959 31.643 26.8306 31.475 26.8169C31.0653 26.8169 30.6443 26.8169 30.2005 26.8742V28.5939C30.5191 28.6971 30.8605 28.7888 31.1905 28.9149C31.3613 28.9773 31.5038 29.1 31.5917 29.2602C31.6796 29.4204 31.7068 29.6073 31.6684 29.7862C31.6684 30.2104 31.6684 30.646 31.2132 30.8524C30.1184 31.2986 28.8943 31.2986 27.7995 30.8524C27.6372 30.7929 27.5012 30.6772 27.4157 30.526C27.3303 30.3748 27.3009 30.1979 27.3329 30.027C27.3329 29.5913 27.2419 29.1098 27.7881 28.8805C28.1295 28.7544 28.4708 28.6512 28.8236 28.5366V26.9315L23.2023 27.1952V28.6054L23.3502 28.6741C24.5792 29.041 24.3857 29.2703 24.3402 30.3824C24.3402 30.5772 24.0216 30.8409 23.794 30.9441C22.9896 31.2635 22.0949 31.2635 21.2906 30.9441C20.6078 30.7148 20.7102 30.1531 20.6875 29.6257C20.6759 29.4275 20.7366 29.2319 20.8581 29.0757C20.9797 28.9194 21.1537 28.8133 21.3475 28.7773C21.5113 28.7114 21.6784 28.654 21.8481 28.6054V27.2296L16.3747 27.4818V28.6283L16.7389 28.7315C18.002 29.0639 17.8085 29.3505 17.763 30.348C17.763 30.5429 17.5127 30.7951 17.3192 30.8868C16.8009 31.1081 16.2436 31.2222 15.6806 31.2222C15.1176 31.2222 14.5604 31.1081 14.042 30.8868C13.4844 30.669 13.5982 30.176 13.5755 29.7403C13.5512 29.5685 13.5882 29.3936 13.6799 29.2467C13.7716 29.0998 13.912 28.9903 14.0761 28.9378C14.3834 28.8117 14.6906 28.7315 15.0206 28.6283V27.5965L8.39792 27.9175V13.2544L15.0206 13.5754V12.5436C14.6906 12.4404 14.3834 12.3601 14.0761 12.234C13.912 12.1815 13.7716 12.0721 13.6799 11.9251C13.5882 11.7782 13.5512 11.6033 13.5755 11.4315C13.5755 10.9844 13.4844 10.4914 14.042 10.285C14.5597 10.0611 15.1172 9.94563 15.6806 9.94563C16.244 9.94563 16.8015 10.0611 17.3192 10.285C17.5127 10.3768 17.763 10.629 17.763 10.8124C17.763 11.8213 18.002 12.1079 16.7389 12.4404L16.3747 12.5436V13.69L21.8481 13.9422V12.5665L21.3475 12.3945C21.1537 12.3585 20.9797 12.2524 20.8581 12.0962C20.7366 11.9399 20.6759 11.7443 20.6875 11.5461C20.6875 11.0073 20.6078 10.457 21.2906 10.2277C22.0949 9.90834 22.9896 9.90834 23.794 10.2277C24.0216 10.3309 24.3288 10.5946 24.3402 10.7895C24.3402 11.9359 24.5792 12.1194 23.3502 12.4977L23.2023 12.5665V13.9766L28.8236 14.2403V12.5206C28.4708 12.406 28.1295 12.3028 27.7881 12.1767C27.2419 11.9818 27.3557 11.5003 27.3329 11.0302C27.3009 10.8593 27.3303 10.6824 27.4157 10.5312C27.5012 10.38 27.6372 10.2643 27.7995 10.2048C28.8943 9.7586 30.1184 9.7586 31.2132 10.2048C31.7253 10.4112 31.657 10.8468 31.6684 11.271C31.7068 11.4499 31.6796 11.6368 31.5917 11.797C31.5038 11.9572 31.3613 12.0799 31.1905 12.1423L30.2005 12.4633V14.183C30.6443 14.183 31.0653 14.2518 31.475 14.183C31.643 14.1693 31.8114 14.204 31.9605 14.2832C32.1096 14.3624 32.2333 14.4827 32.317 14.6301C32.6168 15.0866 32.9598 15.5128 33.3411 15.9027C33.4764 16.0265 33.641 16.1133 33.8191 16.1549H39.0535C38.013 11.356 35.2478 7.11431 31.2899 4.24591C27.332 1.37751 22.4611 0.0850419 17.6143 0.617179C12.7675 1.14932 8.28721 3.46847 5.03546 7.12842C1.78372 10.7884 -0.00977128 15.5306 6.68446e-05 20.4426V20.5458Z" fill="white"/>
</svg>
