<svg width="40" height="40" viewBox="0 0 40 40" fill="none" xmlns="http://www.w3.org/2000/svg">
<path d="M6.68446e-05 20.0458C-0.0126124 24.9588 1.77887 29.703 5.0297 33.3651C8.28053 37.0273 12.761 39.3485 17.6086 39.8822C22.4563 40.4159 27.3285 39.1242 31.2876 36.2557C35.2467 33.3873 38.0128 29.1449 39.0535 24.345H33.8191C33.6392 24.3817 33.4735 24.4692 33.3411 24.5972C32.9598 24.9871 32.6168 25.4133 32.317 25.8698C32.2333 26.0172 32.1096 26.1375 31.9605 26.2167C31.8114 26.2959 31.643 26.3306 31.475 26.3169C31.0653 26.3169 30.6443 26.3169 30.2005 26.3742V28.0939C30.5191 28.1971 30.8605 28.2888 31.1905 28.4149C31.3613 28.4773 31.5038 28.6 31.5917 28.7602C31.6796 28.9204 31.7068 29.1073 31.6684 29.2862C31.6684 29.7104 31.6684 30.146 31.2132 30.3524C30.1184 30.7986 28.8943 30.7986 27.7995 30.3524C27.6372 30.2929 27.5012 30.1772 27.4157 30.026C27.3303 29.8748 27.3009 29.6979 27.3329 29.527C27.3329 29.0913 27.2419 28.6098 27.7881 28.3805C28.1295 28.2544 28.4708 28.1512 28.8236 28.0366V26.4315L23.2023 26.6952V28.1054L23.3502 28.1741C24.5792 28.541 24.3857 28.7703 24.3402 29.8824C24.3402 30.0772 24.0216 30.3409 23.794 30.4441C22.9896 30.7635 22.0949 30.7635 21.2906 30.4441C20.6078 30.2148 20.7102 29.6531 20.6875 29.1257C20.6759 28.9275 20.7366 28.7319 20.8581 28.5757C20.9797 28.4194 21.1537 28.3133 21.3475 28.2773C21.5113 28.2114 21.6784 28.154 21.8481 28.1054V26.7296L16.3747 26.9818V28.1283L16.7389 28.2315C18.002 28.5639 17.8085 28.8505 17.763 29.848C17.763 30.0429 17.5127 30.2951 17.3192 30.3868C16.8009 30.6081 16.2436 30.7222 15.6806 30.7222C15.1176 30.7222 14.5604 30.6081 14.042 30.3868C13.4844 30.169 13.5982 29.676 13.5755 29.2403C13.5512 29.0685 13.5882 28.8936 13.6799 28.7467C13.7716 28.5998 13.912 28.4903 14.0761 28.4378C14.3834 28.3117 14.6906 28.2315 15.0206 28.1283V27.0965L8.39792 27.4175V12.7544L15.0206 13.0754V12.0436C14.6906 11.9404 14.3834 11.8601 14.0761 11.734C13.912 11.6815 13.7716 11.5721 13.6799 11.4251C13.5882 11.2782 13.5512 11.1033 13.5755 10.9315C13.5755 10.4844 13.4844 9.99141 14.042 9.78505C14.5597 9.56111 15.1172 9.44563 15.6806 9.44563C16.244 9.44563 16.8015 9.56111 17.3192 9.78505C17.5127 9.87677 17.763 10.129 17.763 10.3124C17.763 11.3213 18.002 11.6079 16.7389 11.9404L16.3747 12.0436V13.19L21.8481 13.4422V12.0665L21.3475 11.8945C21.1537 11.8585 20.9797 11.7524 20.8581 11.5962C20.7366 11.4399 20.6759 11.2443 20.6875 11.0461C20.6875 10.5073 20.6078 9.95702 21.2906 9.72773C22.0949 9.40834 22.9896 9.40834 23.794 9.72773C24.0216 9.83091 24.3288 10.0946 24.3402 10.2895C24.3402 11.4359 24.5792 11.6194 23.3502 11.9977L23.2023 12.0665V13.4766L28.8236 13.7403V12.0206C28.4708 11.906 28.1295 11.8028 27.7881 11.6767C27.2419 11.4818 27.3557 11.0003 27.3329 10.5302C27.3009 10.3593 27.3303 10.1824 27.4157 10.0312C27.5012 9.87999 27.6372 9.76431 27.7995 9.7048C28.8943 9.2586 30.1184 9.2586 31.2132 9.7048C31.7253 9.91116 31.657 10.3468 31.6684 10.771C31.7068 10.9499 31.6796 11.1368 31.5917 11.297C31.5038 11.4572 31.3613 11.5799 31.1905 11.6423L30.2005 11.9633V13.683C30.6443 13.683 31.0653 13.7518 31.475 13.683C31.643 13.6693 31.8114 13.704 31.9605 13.7832C32.1096 13.8624 32.2333 13.9827 32.317 14.1301C32.6168 14.5866 32.9598 15.0128 33.3411 15.4027C33.4764 15.5265 33.641 15.6133 33.8191 15.6549H39.0535C38.013 10.856 35.2478 6.61431 31.2899 3.74591C27.332 0.877509 22.4611 -0.414958 17.6143 0.117179C12.7675 0.649317 8.2872 2.96847 5.03546 6.62842C1.78372 10.2884 -0.00977128 15.0306 6.68446e-05 19.9426V20.0458Z" fill="white"/>
</svg>
